<svg xmlns="http://www.w3.org/2000/svg" width="24" height="24" fill="none"><path fill="#000" fill-rule="evenodd" d="M18.996 17.15H19V3.85a.85.85 0 0 0-.85-.85H7.75A2.75 2.75 0 0 0 5 5.75V18.5h.003L5 18.625A2.375 2.375 0 0 0 7.375 21H18.11a.89.89 0 0 0 .803-1.27l-.09-.19a2.19 2.19 0 0 1 .063-1.995.9.9 0 0 0 .11-.395M7.75 4.5c-.69 0-1.25.56-1.25 1.25v10.666c.27-.107.566-.166.875-.166H17.5V4.5h-8v6.75a.75.75 0 0 1-1.5 0V4.5zM6.5 18.625c0-.483.392-.875.875-.875h9.837a3.7 3.7 0 0 0 .011 1.75H7.375a.875.875 0 0 1-.875-.875" clip-rule="evenodd"/></svg>