<svg xmlns="http://www.w3.org/2000/svg" width="24" height="24" fill="none"><path fill="#000" d="M8.25 9.75a.75.75 0 0 0-1.5 0v.5h-.5a.75.75 0 0 0 0 1.5h.5v.5a.75.75 0 0 0 1.5 0v-.5h.5a.75.75 0 0 0 0-1.5h-.5zM17.25 9.75a.75.75 0 1 1-1.5 0 .75.75 0 0 1 1.5 0M16 11a.75.75 0 1 1-1.5 0 .75.75 0 0 1 1.5 0M18.5 11a.75.75 0 1 1-1.5 0 .75.75 0 0 1 1.5 0M16.5 13a.75.75 0 1 0 0-1.5.75.75 0 0 0 0 1.5"/><path fill="#000" fill-rule="evenodd" d="M3 11.867v3.67a3.464 3.464 0 0 0 6.145 2.193l1.427-1.745.047-.061.007-.011a.93.93 0 0 1 .775-.413H12.6c.31 0 .598.153.772.409a1 1 0 0 0 .053.072l1.431 1.749A3.464 3.464 0 0 0 21 15.536v-3.69q0-.411-.07-.815l-.365-2.095A4.75 4.75 0 0 0 15.885 5H8.118a4.75 4.75 0 0 0-4.68 3.94l-.367 2.117q-.07.402-.07.81m16.5-.022q0-.28-.048-.557l-.365-2.095A3.25 3.25 0 0 0 15.886 6.5h-7.77a3.25 3.25 0 0 0-3.202 2.695l-.366 2.118a3 3 0 0 0-.048.554v3.67a1.964 1.964 0 0 0 3.484 1.243l1.415-1.73A2.43 2.43 0 0 1 11.4 14H12.6c.8 0 1.549.394 2.003 1.051l1.414 1.729a1.964 1.964 0 0 0 3.484-1.244z" clip-rule="evenodd"/></svg>